<svg width="130" height="20" viewBox="0 0 130 20" fill="none" xmlns="http://www.w3.org/2000/svg">
<path d="M0.5 10C0.5 4.75329 4.7533 0.5 10 0.5H120C125.247 0.5 129.5 4.75329 129.5 10C129.5 15.2467 125.247 19.5 120 19.5H10C4.75329 19.5 0.5 15.2467 0.5 10Z" fill="url(#paint0_linear_10_131)" stroke="black"/>
<mask id="mask0_10_131" style="mask-type:alpha" maskUnits="userSpaceOnUse" x="0" y="0" width="130" height="20">
<path d="M0.5 10C0.5 4.75329 4.7533 0.5 10 0.5H120C125.247 0.5 129.5 4.75329 129.5 10C129.5 15.2467 125.247 19.5 120 19.5H10C4.75329 19.5 0.5 15.2467 0.5 10Z" fill="url(#paint1_linear_10_131)" stroke="black"/>
</mask>
<g mask="url(#mask0_10_131)">
<mask id="path-3-outside-1_10_131" maskUnits="userSpaceOnUse" x="8.21264" y="0" width="50" height="21" fill="black">
<rect fill="white" x="8.21264" width="50" height="21"/>
<path d="M22.2869 4.78516H13.6267V8.75781H21.2087V11.7578H13.6267V19H10.0408V1.75H22.2869V4.78516ZM34.9314 12.3438V1.72656H38.5994V12.3438C38.5994 14.1797 38.3142 15.6094 37.7439 16.6328C36.6814 18.5078 34.654 19.4453 31.6619 19.4453C28.6697 19.4453 26.6384 18.5078 25.5681 16.6328C24.9978 15.6094 24.7126 14.1797 24.7126 12.3438V1.72656H28.3806V12.3438C28.3806 13.5312 28.5212 14.3984 28.8025 14.9453C29.24 15.9141 30.1931 16.3984 31.6619 16.3984C33.1228 16.3984 34.072 15.9141 34.5095 14.9453C34.7908 14.3984 34.9314 13.5312 34.9314 12.3438ZM49.4978 19H42.0564V1.72656H49.4978C50.5681 1.74219 51.4587 1.86719 52.1697 2.10156C53.3806 2.5 54.3611 3.23047 55.1111 4.29297C55.7126 5.15234 56.1228 6.08203 56.3415 7.08203C56.5603 8.08203 56.6697 9.03516 56.6697 9.94141C56.6697 12.2383 56.2087 14.1836 55.2869 15.7773C54.0369 17.9258 52.1072 19 49.4978 19ZM52.1814 6.13281C51.6267 5.19531 50.529 4.72656 48.8884 4.72656H45.5603V16H48.8884C50.5915 16 51.779 15.1602 52.4509 13.4805C52.8181 12.5586 53.0017 11.4609 53.0017 10.1875C53.0017 8.42969 52.7283 7.07812 52.1814 6.13281Z"/>
</mask>
<path d="M22.2869 4.78516H13.6267V8.75781H21.2087V11.7578H13.6267V19H10.0408V1.75H22.2869V4.78516ZM34.9314 12.3438V1.72656H38.5994V12.3438C38.5994 14.1797 38.3142 15.6094 37.7439 16.6328C36.6814 18.5078 34.654 19.4453 31.6619 19.4453C28.6697 19.4453 26.6384 18.5078 25.5681 16.6328C24.9978 15.6094 24.7126 14.1797 24.7126 12.3438V1.72656H28.3806V12.3438C28.3806 13.5312 28.5212 14.3984 28.8025 14.9453C29.24 15.9141 30.1931 16.3984 31.6619 16.3984C33.1228 16.3984 34.072 15.9141 34.5095 14.9453C34.7908 14.3984 34.9314 13.5312 34.9314 12.3438ZM49.4978 19H42.0564V1.72656H49.4978C50.5681 1.74219 51.4587 1.86719 52.1697 2.10156C53.3806 2.5 54.3611 3.23047 55.1111 4.29297C55.7126 5.15234 56.1228 6.08203 56.3415 7.08203C56.5603 8.08203 56.6697 9.03516 56.6697 9.94141C56.6697 12.2383 56.2087 14.1836 55.2869 15.7773C54.0369 17.9258 52.1072 19 49.4978 19ZM52.1814 6.13281C51.6267 5.19531 50.529 4.72656 48.8884 4.72656H45.5603V16H48.8884C50.5915 16 51.779 15.1602 52.4509 13.4805C52.8181 12.5586 53.0017 11.4609 53.0017 10.1875C53.0017 8.42969 52.7283 7.07812 52.1814 6.13281Z" fill="#FBFAFF"/>
<path d="M22.2869 4.78516V5.78516H23.2869V4.78516H22.2869ZM13.6267 4.78516V3.78516H12.6267V4.78516H13.6267ZM13.6267 8.75781H12.6267V9.75781H13.6267V8.75781ZM21.2087 8.75781H22.2087V7.75781H21.2087V8.75781ZM21.2087 11.7578V12.7578H22.2087V11.7578H21.2087ZM13.6267 11.7578V10.7578H12.6267V11.7578H13.6267ZM13.6267 19V20H14.6267V19H13.6267ZM10.0408 19H9.04076V20H10.0408V19ZM10.0408 1.75V0.75H9.04076V1.75H10.0408ZM22.2869 1.75H23.2869V0.75H22.2869V1.75ZM22.2869 3.78516H13.6267V5.78516H22.2869V3.78516ZM12.6267 4.78516V8.75781H14.6267V4.78516H12.6267ZM13.6267 9.75781H21.2087V7.75781H13.6267V9.75781ZM20.2087 8.75781V11.7578H22.2087V8.75781H20.2087ZM21.2087 10.7578H13.6267V12.7578H21.2087V10.7578ZM12.6267 11.7578V19H14.6267V11.7578H12.6267ZM13.6267 18H10.0408V20H13.6267V18ZM11.0408 19V1.75H9.04076V19H11.0408ZM10.0408 2.75H22.2869V0.75H10.0408V2.75ZM21.2869 1.75V4.78516H23.2869V1.75H21.2869ZM34.9314 1.72656V0.726562H33.9314V1.72656H34.9314ZM38.5994 1.72656H39.5994V0.726562H38.5994V1.72656ZM37.7439 16.6328L38.6139 17.1258L38.6174 17.1196L37.7439 16.6328ZM25.5681 16.6328L24.6945 17.1196L24.6996 17.1286L25.5681 16.6328ZM24.7126 1.72656V0.726562H23.7126V1.72656H24.7126ZM28.3806 1.72656H29.3806V0.726562H28.3806V1.72656ZM28.8025 14.9453L29.7139 14.5337L29.7034 14.5106L29.6918 14.488L28.8025 14.9453ZM34.5095 14.9453L33.6202 14.488L33.6086 14.5106L33.5981 14.5337L34.5095 14.9453ZM35.9314 12.3438V1.72656H33.9314V12.3438H35.9314ZM34.9314 2.72656H38.5994V0.726562H34.9314V2.72656ZM37.5994 1.72656V12.3438H39.5994V1.72656H37.5994ZM37.5994 12.3438C37.5994 14.0969 37.3236 15.3328 36.8704 16.146L38.6174 17.1196C39.3048 15.886 39.5994 14.2624 39.5994 12.3438H37.5994ZM36.8739 16.1398C36.0549 17.5851 34.4513 18.4453 31.6619 18.4453V20.4453C34.8568 20.4453 37.3079 19.4305 38.6139 17.1258L36.8739 16.1398ZM31.6619 18.4453C28.8729 18.4453 27.2632 17.5852 26.4366 16.1371L24.6996 17.1286C26.0136 19.4305 28.4664 20.4453 31.6619 20.4453V18.4453ZM26.4416 16.146C25.9884 15.3328 25.7126 14.0969 25.7126 12.3438H23.7126C23.7126 14.2624 24.0071 15.886 24.6946 17.1196L26.4416 16.146ZM25.7126 12.3438V1.72656H23.7126V12.3438H25.7126ZM24.7126 2.72656H28.3806V0.726562H24.7126V2.72656ZM27.3806 1.72656V12.3438H29.3806V1.72656H27.3806ZM27.3806 12.3438C27.3806 13.5685 27.5187 14.6356 27.9132 15.4027L29.6918 14.488C29.5237 14.1613 29.3806 13.494 29.3806 12.3438H27.3806ZM27.8911 15.3569C28.5522 16.8208 29.9765 17.3984 31.6619 17.3984V15.3984C30.4097 15.3984 29.9277 15.0073 29.7139 14.5337L27.8911 15.3569ZM31.6619 17.3984C33.3424 17.3984 34.7607 16.8188 35.4209 15.3569L33.5981 14.5337C33.3834 15.0093 32.9032 15.3984 31.6619 15.3984V17.3984ZM35.3988 15.4027C35.7933 14.6356 35.9314 13.5685 35.9314 12.3438H33.9314C33.9314 13.494 33.7882 14.1613 33.6202 14.488L35.3988 15.4027ZM42.0564 19H41.0564V20H42.0564V19ZM42.0564 1.72656V0.726562H41.0564V1.72656H42.0564ZM49.4978 1.72656L49.5124 0.726669L49.5051 0.726562H49.4978V1.72656ZM52.1697 2.10156L51.8566 3.05128L51.8571 3.05146L52.1697 2.10156ZM55.1111 4.29297L55.9303 3.7195L55.928 3.71629L55.1111 4.29297ZM55.2869 15.7773L56.1512 16.2802L56.1525 16.278L55.2869 15.7773ZM52.1814 6.13281L53.047 5.63203L53.042 5.6236L52.1814 6.13281ZM45.5603 4.72656V3.72656H44.5603V4.72656H45.5603ZM45.5603 16H44.5603V17H45.5603V16ZM52.4509 13.4805L53.3794 13.8519L53.3799 13.8505L52.4509 13.4805ZM49.4978 18H42.0564V20H49.4978V18ZM43.0564 19V1.72656H41.0564V19H43.0564ZM42.0564 2.72656H49.4978V0.726562H42.0564V2.72656ZM49.4832 2.72646C50.4918 2.74118 51.2736 2.85911 51.8566 3.05128L52.4828 1.15184C51.6438 0.875268 50.6444 0.743195 49.5124 0.726669L49.4832 2.72646ZM51.8571 3.05146C52.8598 3.38139 53.6652 3.97865 54.2941 4.86965L55.928 3.71629C55.057 2.48229 53.9014 1.61861 52.4822 1.15166L51.8571 3.05146ZM54.2918 4.86643C54.8195 5.62023 55.1749 6.42813 55.3646 7.29573L57.3184 6.86833C57.0707 5.73593 56.6058 4.68445 55.9303 3.71951L54.2918 4.86643ZM55.3646 7.29573C55.57 8.23441 55.6697 9.11556 55.6697 9.94141H57.6697C57.6697 8.95475 57.5506 7.92965 57.3184 6.86833L55.3646 7.29573ZM55.6697 9.94141C55.6697 12.1055 55.2358 13.8684 54.4212 15.2766L56.1525 16.278C57.1817 14.4987 57.6697 12.3711 57.6697 9.94141H55.6697ZM54.4225 15.2745C53.3622 17.0968 51.7728 18 49.4978 18V20C52.4415 20 54.7115 18.7548 56.1512 16.2802L54.4225 15.2745ZM53.042 5.6236C52.2269 4.24598 50.6892 3.72656 48.8884 3.72656V5.72656C50.3689 5.72656 51.0265 6.14465 51.3207 6.64202L53.042 5.6236ZM48.8884 3.72656H45.5603V5.72656H48.8884V3.72656ZM44.5603 4.72656V16H46.5603V4.72656H44.5603ZM45.5603 17H48.8884V15H45.5603V17ZM48.8884 17C49.9104 17 50.8437 16.7453 51.6338 16.1866C52.4195 15.6309 52.9893 14.8271 53.3794 13.8519L51.5224 13.1091C51.2407 13.8135 50.8808 14.2695 50.479 14.5537C50.0815 14.8347 49.5695 15 48.8884 15V17ZM53.3799 13.8505C53.8052 12.7827 54.0017 11.5534 54.0017 10.1875H52.0017C52.0017 11.3685 51.831 12.3344 51.5219 13.1104L53.3799 13.8505ZM54.0017 10.1875C54.0017 8.35032 53.7201 6.79562 53.047 5.63206L51.3158 6.63357C51.7364 7.36063 52.0017 8.50905 52.0017 10.1875H54.0017Z" fill="black" mask="url(#path-3-outside-1_10_131)"/>
</g>
<defs>
<linearGradient id="paint0_linear_10_131" x1="131.095" y1="10" x2="1.09547" y2="10" gradientUnits="userSpaceOnUse">
<stop stop-color="white"/>
<stop offset="0.436418" stop-color="#F6E9FF"/>
<stop offset="1" stop-color="#B9A8E6"/>
</linearGradient>
<linearGradient id="paint1_linear_10_131" x1="131.095" y1="10" x2="1.09547" y2="10" gradientUnits="userSpaceOnUse">
<stop stop-color="white"/>
<stop offset="0.436418" stop-color="#F6E9FF"/>
<stop offset="1" stop-color="#B9A8E6"/>
</linearGradient>
</defs>
</svg>
