<svg width="130" height="20" viewBox="0 0 130 20" fill="none" xmlns="http://www.w3.org/2000/svg">
<rect x="0.5" y="0.5" width="129" height="19" rx="9.5" fill="url(#paint0_linear_10_121)" stroke="black"/>
<mask id="mask0_10_121" style="mask-type:alpha" maskUnits="userSpaceOnUse" x="0" y="0" width="130" height="20">
<rect x="0.5" y="0.5" width="129" height="19" rx="9.5" fill="url(#paint1_linear_10_121)" stroke="black"/>
</mask>
<g mask="url(#mask0_10_121)">
<mask id="path-3-outside-1_10_121" maskUnits="userSpaceOnUse" x="8.21263" y="0" width="73" height="21" fill="black">
<rect fill="white" x="8.21263" width="73" height="21"/>
<path d="M22.2868 4.78516H13.6267V8.75781H21.2087V11.7578H13.6267V19H10.0408V1.75H22.2868V4.78516ZM32.3533 19.4805C29.8845 19.4805 27.9978 18.8086 26.6931 17.4648C24.9431 15.8164 24.0681 13.4414 24.0681 10.3398C24.0681 7.17578 24.9431 4.80078 26.6931 3.21484C27.9978 1.87109 29.8845 1.19922 32.3533 1.19922C34.822 1.19922 36.7087 1.87109 38.0134 3.21484C39.7556 4.80078 40.6267 7.17578 40.6267 10.3398C40.6267 13.4414 39.7556 15.8164 38.0134 17.4648C36.7087 18.8086 34.822 19.4805 32.3533 19.4805ZM35.7634 14.8398C36.5993 13.7852 37.0173 12.2852 37.0173 10.3398C37.0173 8.40234 36.5954 6.90625 35.7517 5.85156C34.9158 4.78906 33.7829 4.25781 32.3533 4.25781C30.9236 4.25781 29.7829 4.78516 28.9314 5.83984C28.0798 6.89453 27.654 8.39453 27.654 10.3398C27.654 12.2852 28.0798 13.7852 28.9314 14.8398C29.7829 15.8945 30.9236 16.4219 32.3533 16.4219C33.7829 16.4219 34.9197 15.8945 35.7634 14.8398ZM46.697 19H43.3337V1.72656H48.5837L51.7243 15.3086L54.8415 1.72656H60.0329V19H56.6697V7.31641C56.6697 6.98047 56.6736 6.51172 56.6814 5.91016C56.6892 5.30078 56.6931 4.83203 56.6931 4.50391L53.4236 19H49.9197L46.6736 4.50391C46.6736 4.83203 46.6775 5.30078 46.6853 5.91016C46.6931 6.51172 46.697 6.98047 46.697 7.31641V19ZM71.0251 19.4805C68.5564 19.4805 66.6697 18.8086 65.365 17.4648C63.615 15.8164 62.74 13.4414 62.74 10.3398C62.74 7.17578 63.615 4.80078 65.365 3.21484C66.6697 1.87109 68.5564 1.19922 71.0251 1.19922C73.4939 1.19922 75.3806 1.87109 76.6853 3.21484C78.4275 4.80078 79.2986 7.17578 79.2986 10.3398C79.2986 13.4414 78.4275 15.8164 76.6853 17.4648C75.3806 18.8086 73.4939 19.4805 71.0251 19.4805ZM74.4353 14.8398C75.2712 13.7852 75.6892 12.2852 75.6892 10.3398C75.6892 8.40234 75.2673 6.90625 74.4236 5.85156C73.5876 4.78906 72.4548 4.25781 71.0251 4.25781C69.5954 4.25781 68.4548 4.78516 67.6033 5.83984C66.7517 6.89453 66.3259 8.39453 66.3259 10.3398C66.3259 12.2852 66.7517 13.7852 67.6033 14.8398C68.4548 15.8945 69.5954 16.4219 71.0251 16.4219C72.4548 16.4219 73.5915 15.8945 74.4353 14.8398Z"/>
</mask>
<path d="M22.2868 4.78516H13.6267V8.75781H21.2087V11.7578H13.6267V19H10.0408V1.75H22.2868V4.78516ZM32.3533 19.4805C29.8845 19.4805 27.9978 18.8086 26.6931 17.4648C24.9431 15.8164 24.0681 13.4414 24.0681 10.3398C24.0681 7.17578 24.9431 4.80078 26.6931 3.21484C27.9978 1.87109 29.8845 1.19922 32.3533 1.19922C34.822 1.19922 36.7087 1.87109 38.0134 3.21484C39.7556 4.80078 40.6267 7.17578 40.6267 10.3398C40.6267 13.4414 39.7556 15.8164 38.0134 17.4648C36.7087 18.8086 34.822 19.4805 32.3533 19.4805ZM35.7634 14.8398C36.5993 13.7852 37.0173 12.2852 37.0173 10.3398C37.0173 8.40234 36.5954 6.90625 35.7517 5.85156C34.9158 4.78906 33.7829 4.25781 32.3533 4.25781C30.9236 4.25781 29.7829 4.78516 28.9314 5.83984C28.0798 6.89453 27.654 8.39453 27.654 10.3398C27.654 12.2852 28.0798 13.7852 28.9314 14.8398C29.7829 15.8945 30.9236 16.4219 32.3533 16.4219C33.7829 16.4219 34.9197 15.8945 35.7634 14.8398ZM46.697 19H43.3337V1.72656H48.5837L51.7243 15.3086L54.8415 1.72656H60.0329V19H56.6697V7.31641C56.6697 6.98047 56.6736 6.51172 56.6814 5.91016C56.6892 5.30078 56.6931 4.83203 56.6931 4.50391L53.4236 19H49.9197L46.6736 4.50391C46.6736 4.83203 46.6775 5.30078 46.6853 5.91016C46.6931 6.51172 46.697 6.98047 46.697 7.31641V19ZM71.0251 19.4805C68.5564 19.4805 66.6697 18.8086 65.365 17.4648C63.615 15.8164 62.74 13.4414 62.74 10.3398C62.74 7.17578 63.615 4.80078 65.365 3.21484C66.6697 1.87109 68.5564 1.19922 71.0251 1.19922C73.4939 1.19922 75.3806 1.87109 76.6853 3.21484C78.4275 4.80078 79.2986 7.17578 79.2986 10.3398C79.2986 13.4414 78.4275 15.8164 76.6853 17.4648C75.3806 18.8086 73.4939 19.4805 71.0251 19.4805ZM74.4353 14.8398C75.2712 13.7852 75.6892 12.2852 75.6892 10.3398C75.6892 8.40234 75.2673 6.90625 74.4236 5.85156C73.5876 4.78906 72.4548 4.25781 71.0251 4.25781C69.5954 4.25781 68.4548 4.78516 67.6033 5.83984C66.7517 6.89453 66.3259 8.39453 66.3259 10.3398C66.3259 12.2852 66.7517 13.7852 67.6033 14.8398C68.4548 15.8945 69.5954 16.4219 71.0251 16.4219C72.4548 16.4219 73.5915 15.8945 74.4353 14.8398Z" fill="#FBFAFF"/>
<path d="M22.2868 4.78516V5.78516H23.2868V4.78516H22.2868ZM13.6267 4.78516V3.78516H12.6267V4.78516H13.6267ZM13.6267 8.75781H12.6267V9.75781H13.6267V8.75781ZM21.2087 8.75781H22.2087V7.75781H21.2087V8.75781ZM21.2087 11.7578V12.7578H22.2087V11.7578H21.2087ZM13.6267 11.7578V10.7578H12.6267V11.7578H13.6267ZM13.6267 19V20H14.6267V19H13.6267ZM10.0408 19H9.04076V20H10.0408V19ZM10.0408 1.75V0.75H9.04076V1.75H10.0408ZM22.2868 1.75H23.2868V0.75H22.2868V1.75ZM22.2868 3.78516H13.6267V5.78516H22.2868V3.78516ZM12.6267 4.78516V8.75781H14.6267V4.78516H12.6267ZM13.6267 9.75781H21.2087V7.75781H13.6267V9.75781ZM20.2087 8.75781V11.7578H22.2087V8.75781H20.2087ZM21.2087 10.7578H13.6267V12.7578H21.2087V10.7578ZM12.6267 11.7578V19H14.6267V11.7578H12.6267ZM13.6267 18H10.0408V20H13.6267V18ZM11.0408 19V1.75H9.04076V19H11.0408ZM10.0408 2.75H22.2868V0.75H10.0408V2.75ZM21.2868 1.75V4.78516H23.2868V1.75H21.2868ZM26.6931 17.4648L27.4106 16.7682L27.395 16.7522L27.3788 16.7369L26.6931 17.4648ZM26.6931 3.21484L27.3646 3.95583L27.3883 3.93437L27.4106 3.91145L26.6931 3.21484ZM38.0134 3.21484L37.296 3.91145L37.3174 3.93357L37.3402 3.95433L38.0134 3.21484ZM38.0134 17.4648L37.3261 16.7385L37.3107 16.753L37.296 16.7682L38.0134 17.4648ZM35.7634 14.8398L36.5443 15.4645L36.5471 15.461L35.7634 14.8398ZM35.7517 5.85156L34.9657 6.46991L34.9708 6.47626L35.7517 5.85156ZM32.3533 18.4805C30.0652 18.4805 28.4725 17.862 27.4106 16.7682L25.9756 18.1614C27.5231 19.7552 29.7038 20.4805 32.3533 20.4805V18.4805ZM27.3788 16.7369C25.8835 15.3284 25.0681 13.2502 25.0681 10.3398H23.0681C23.0681 13.6326 24.0027 16.3044 26.0074 18.1928L27.3788 16.7369ZM25.0681 10.3398C25.0681 7.35759 25.8882 5.29386 27.3646 3.95583L26.0216 2.47386C23.998 4.3077 23.0681 6.99397 23.0681 10.3398H25.0681ZM27.4106 3.91145C28.4725 2.81769 30.0652 2.19922 32.3533 2.19922V0.199219C29.7038 0.199219 27.5231 0.924493 25.9756 2.51824L27.4106 3.91145ZM32.3533 2.19922C34.6413 2.19922 36.234 2.81769 37.296 3.91145L38.7309 2.51824C37.1835 0.924493 35.0027 0.199219 32.3533 0.199219V2.19922ZM37.3402 3.95433C38.8097 5.29204 39.6267 7.35628 39.6267 10.3398H41.6267C41.6267 6.99528 40.7015 4.30953 38.6866 2.47535L37.3402 3.95433ZM39.6267 10.3398C39.6267 13.2515 38.8144 15.3302 37.3261 16.7385L38.7007 18.1912C40.6968 16.3026 41.6267 13.6313 41.6267 10.3398H39.6267ZM37.296 16.7682C36.234 17.862 34.6413 18.4805 32.3533 18.4805V20.4805C35.0027 20.4805 37.1835 19.7552 38.7309 18.1614L37.296 16.7682ZM36.5471 15.461C37.5736 14.1659 38.0173 12.4132 38.0173 10.3398H36.0173C36.0173 12.1572 35.6251 13.4044 34.9797 14.2187L36.5471 15.461ZM38.0173 10.3398C38.0173 8.27143 37.5684 6.52166 36.5326 5.22687L34.9708 6.47626C35.6225 7.29084 36.0173 8.53326 36.0173 10.3398H38.0173ZM36.5376 5.23323C35.4998 3.91415 34.0692 3.25781 32.3533 3.25781V5.25781C33.4967 5.25781 34.3317 5.66398 34.9658 6.46989L36.5376 5.23323ZM32.3533 3.25781C30.6404 3.25781 29.2064 3.90739 28.1533 5.21164L29.7094 6.46805C30.3595 5.66292 31.2067 5.25781 32.3533 5.25781V3.25781ZM28.1533 5.21164C27.1072 6.50733 26.654 8.26295 26.654 10.3398H28.654C28.654 8.52611 29.0525 7.28173 29.7094 6.46805L28.1533 5.21164ZM26.654 10.3398C26.654 12.4167 27.1072 14.1724 28.1533 15.468L29.7094 14.2116C29.0525 13.398 28.654 12.1536 28.654 10.3398H26.654ZM28.1533 15.468C29.2064 16.7723 30.6404 17.4219 32.3533 17.4219V15.4219C31.2067 15.4219 30.3595 15.0168 29.7094 14.2116L28.1533 15.468ZM32.3533 17.4219C34.0662 17.4219 35.4983 16.772 36.5443 15.4645L34.9825 14.2151C34.341 15.0171 33.4997 15.4219 32.3533 15.4219V17.4219ZM46.697 19V20H47.697V19H46.697ZM43.3337 19H42.3337V20H43.3337V19ZM43.3337 1.72656V0.726562H42.3337V1.72656H43.3337ZM48.5837 1.72656L49.558 1.50127L49.3789 0.726562H48.5837V1.72656ZM51.7243 15.3086L50.7501 15.5339L52.699 15.5323L51.7243 15.3086ZM54.8415 1.72656V0.726562H54.045L53.8669 1.50287L54.8415 1.72656ZM60.0329 1.72656H61.0329V0.726562H60.0329V1.72656ZM60.0329 19V20H61.0329V19H60.0329ZM56.6697 19H55.6697V20H56.6697V19ZM56.6814 5.91016L57.6813 5.92314V5.92298L56.6814 5.91016ZM56.6931 4.50391H57.6931L55.7176 4.28389L56.6931 4.50391ZM53.4236 19V20H54.2231L54.3991 19.22L53.4236 19ZM49.9197 19L48.9438 19.2185L49.1188 20H49.9197V19ZM46.6736 4.50391L47.6494 4.28539L45.6736 4.50391H46.6736ZM46.6853 5.91016L45.6854 5.92298V5.92314L46.6853 5.91016ZM46.697 18H43.3337V20H46.697V18ZM44.3337 19V1.72656H42.3337V19H44.3337ZM43.3337 2.72656H48.5837V0.726562H43.3337V2.72656ZM47.6094 1.95185L50.7501 15.5339L52.6986 15.0833L49.558 1.50127L47.6094 1.95185ZM52.699 15.5323L55.8162 1.95025L53.8669 1.50287L50.7497 15.0849L52.699 15.5323ZM54.8415 2.72656H60.0329V0.726562H54.8415V2.72656ZM59.0329 1.72656V19H61.0329V1.72656H59.0329ZM60.0329 18H56.6697V20H60.0329V18ZM57.6697 19V7.31641H55.6697V19H57.6697ZM57.6697 7.31641C57.6697 6.9869 57.6735 6.52318 57.6813 5.92314L55.6815 5.89717C55.6736 6.50026 55.6697 6.97403 55.6697 7.31641H57.6697ZM57.6813 5.92298C57.6891 5.31228 57.6931 4.83848 57.6931 4.50391H55.6931C55.6931 4.82558 55.6893 5.28929 55.6815 5.89734L57.6813 5.92298ZM55.7176 4.28389L52.4481 18.78L54.3991 19.22L57.6686 4.72393L55.7176 4.28389ZM53.4236 18H49.9197V20H53.4236V18ZM50.8955 18.7815L47.6494 4.28539L45.6977 4.72242L48.9438 19.2185L50.8955 18.7815ZM45.6736 4.50391C45.6736 4.83848 45.6775 5.31228 45.6854 5.92298L47.6852 5.89734C47.6774 5.28929 47.6736 4.82558 47.6736 4.50391H45.6736ZM45.6854 5.92314C45.6932 6.52318 45.697 6.9869 45.697 7.31641H47.697C47.697 6.97403 47.693 6.50026 47.6852 5.89717L45.6854 5.92314ZM45.697 7.31641V19H47.697V7.31641H45.697ZM65.365 17.4648L66.0824 16.7682L66.0669 16.7522L66.0506 16.7369L65.365 17.4648ZM65.365 3.21484L66.0365 3.95583L66.0602 3.93437L66.0824 3.91145L65.365 3.21484ZM76.6853 3.21484L75.9678 3.91145L75.9893 3.93357L76.0121 3.95433L76.6853 3.21484ZM76.6853 17.4648L75.998 16.7385L75.9826 16.753L75.9678 16.7682L76.6853 17.4648ZM74.4353 14.8398L75.2162 15.4645L75.219 15.461L74.4353 14.8398ZM74.4236 5.85156L73.6376 6.46991L73.6427 6.47626L74.4236 5.85156ZM71.0251 18.4805C68.7371 18.4805 67.1444 17.862 66.0824 16.7682L64.6475 18.1614C66.1949 19.7552 68.3757 20.4805 71.0251 20.4805V18.4805ZM66.0506 16.7369C64.5553 15.3284 63.74 13.2502 63.74 10.3398H61.74C61.74 13.6326 62.6746 16.3044 64.6793 18.1928L66.0506 16.7369ZM63.74 10.3398C63.74 7.35759 64.5601 5.29386 66.0365 3.95583L64.6935 2.47386C62.6699 4.3077 61.74 6.99397 61.74 10.3398H63.74ZM66.0824 3.91145C67.1444 2.81769 68.7371 2.19922 71.0251 2.19922V0.199219C68.3757 0.199219 66.1949 0.924493 64.6475 2.51824L66.0824 3.91145ZM71.0251 2.19922C73.3132 2.19922 74.9059 2.81769 75.9678 3.91145L77.4027 2.51824C75.8553 0.924493 73.6746 0.199219 71.0251 0.199219V2.19922ZM76.0121 3.95433C77.4816 5.29204 78.2986 7.35628 78.2986 10.3398H80.2986C80.2986 6.99528 79.3733 4.30953 77.3585 2.47535L76.0121 3.95433ZM78.2986 10.3398C78.2986 13.2515 77.4863 15.3302 75.998 16.7385L77.3726 18.1912C79.3686 16.3026 80.2986 13.6313 80.2986 10.3398H78.2986ZM75.9678 16.7682C74.9059 17.862 73.3132 18.4805 71.0251 18.4805V20.4805C73.6746 20.4805 75.8553 19.7552 77.4027 18.1614L75.9678 16.7682ZM75.219 15.461C76.2455 14.1659 76.6892 12.4132 76.6892 10.3398H74.6892C74.6892 12.1572 74.297 13.4044 73.6516 14.2187L75.219 15.461ZM76.6892 10.3398C76.6892 8.27143 76.2403 6.52166 75.2044 5.22687L73.6427 6.47626C74.2944 7.29084 74.6892 8.53326 74.6892 10.3398H76.6892ZM75.2095 5.23323C74.1717 3.91415 72.7411 3.25781 71.0251 3.25781V5.25781C72.1686 5.25781 73.0036 5.66398 73.6376 6.46989L75.2095 5.23323ZM71.0251 3.25781C69.3123 3.25781 67.8783 3.90739 66.8252 5.21164L68.3813 6.46805C69.0314 5.66292 69.8786 5.25781 71.0251 5.25781V3.25781ZM66.8252 5.21164C65.7791 6.50733 65.3259 8.26295 65.3259 10.3398H67.3259C67.3259 8.52611 67.7243 7.28173 68.3813 6.46805L66.8252 5.21164ZM65.3259 10.3398C65.3259 12.4167 65.7791 14.1724 66.8252 15.468L68.3813 14.2116C67.7243 13.398 67.3259 12.1536 67.3259 10.3398H65.3259ZM66.8252 15.468C67.8783 16.7723 69.3123 17.4219 71.0251 17.4219V15.4219C69.8786 15.4219 69.0314 15.0168 68.3813 14.2116L66.8252 15.468ZM71.0251 17.4219C72.7381 17.4219 74.1702 16.772 75.2162 15.4645L73.6544 14.2151C73.0129 15.0171 72.1715 15.4219 71.0251 15.4219V17.4219Z" fill="black" mask="url(#path-3-outside-1_10_121)"/>
</g>
<defs>
<linearGradient id="paint0_linear_10_121" x1="130" y1="10" x2="0" y2="10" gradientUnits="userSpaceOnUse">
<stop stop-color="white"/>
<stop offset="0.335" stop-color="#D3C5F9" stop-opacity="0.849575"/>
<stop offset="1" stop-color="#B168FF"/>
</linearGradient>
<linearGradient id="paint1_linear_10_121" x1="130" y1="10" x2="0" y2="10" gradientUnits="userSpaceOnUse">
<stop stop-color="white"/>
<stop offset="0.685" stop-color="#D3C5F9" stop-opacity="0.849575"/>
<stop offset="1" stop-color="#B168FF"/>
</linearGradient>
</defs>
</svg>
