<svg width="69" height="69" viewBox="0 0 69 69" fill="none" xmlns="http://www.w3.org/2000/svg">
<g clip-path="url(#clip0_9_128)">
<path d="M21.6506 55.8013C17.3685 53.329 13.9157 49.6425 11.7288 45.2079C9.54191 40.7733 8.71913 35.7897 9.36452 30.8875C10.0099 25.9853 12.0945 21.3845 15.3546 17.667C18.6148 13.9495 22.9041 11.2822 27.6802 10.0025C32.4562 8.72277 37.5045 8.88803 42.1866 10.4774C46.8688 12.0668 50.9744 15.0089 53.9845 18.9316C56.9945 22.8544 58.7737 27.5816 59.0971 32.5156C59.4205 37.4495 58.2735 42.3686 55.8013 46.6507C52.4861 52.3928 47.0256 56.5827 40.6211 58.2988C34.2166 60.0149 27.3927 59.1165 21.6506 55.8013ZM45.3685 14.7207C41.5257 12.5019 37.1112 11.4725 32.6833 11.7627C28.2554 12.0529 24.013 13.6495 20.4925 16.3508C16.972 19.0521 14.3317 22.7367 12.9053 26.9385C11.4789 31.1404 11.3305 35.6709 12.479 39.9571C13.6274 44.2434 16.0211 48.0927 19.3573 51.0185C22.6935 53.9443 26.8224 55.8151 31.2218 56.3943C35.6212 56.9736 40.0936 56.2352 44.0734 54.2726C48.0532 52.31 51.3616 49.2113 53.5803 45.3684C56.5554 40.2153 57.3616 34.0914 55.8216 28.3439C54.2816 22.5963 50.5215 17.696 45.3685 14.7207ZM48.815 38.2028L44.9652 40.5807L45.0993 36.0579L42.7218 32.2082L47.2445 32.3424L51.0942 29.9649L50.96 34.4876L53.3376 38.3373L48.815 38.2028ZM50.0358 34.7336L50.1277 31.6388L47.4936 33.2658L44.4019 33.1756L46.0258 35.808L45.934 38.9025L48.568 37.2758L51.6597 37.366L50.0358 34.7336ZM46.8775 42.4297L47.7072 42.9087C47.6561 43.0037 47.6083 43.0994 47.5543 43.1929C45.4154 46.8975 41.8926 49.6007 37.7606 50.7079C33.6287 51.815 29.2262 51.2354 25.5216 49.0966C21.817 46.9577 19.1138 43.4348 18.0067 39.3029C16.8995 35.171 17.4791 30.7685 19.618 27.0639C19.672 26.9703 19.731 26.8811 19.7876 26.7894L46.8775 42.4297ZM26.4087 47.5601C29.6766 49.4514 33.5593 49.975 37.2114 49.0169C36.9496 47.0755 36.2505 45.2189 35.1668 43.5869C34.0831 41.955 32.6432 40.5902 30.9555 39.5956C29.2677 38.601 27.3763 38.0025 25.4236 37.8451C23.471 37.6877 21.508 37.9756 19.6828 38.6871C20.154 40.5405 20.9919 42.2807 22.1472 43.8047C23.3024 45.3287 24.7515 46.6057 26.4087 47.5601ZM20.5624 29.0991C19.4051 31.5848 18.9897 34.3517 19.3662 37.0676C21.3898 36.3224 23.5536 36.0362 25.7012 36.2297C27.8489 36.4231 29.9268 37.0914 31.7845 38.1863C33.6423 39.2811 35.2335 40.7751 36.4432 42.5602C37.6529 44.3453 38.4507 46.3769 38.7791 48.5081C41.4183 47.4888 43.6956 45.709 45.3223 43.3943L20.5624 29.0991ZM23.3361 27.7206L23.4703 23.1979L21.0927 19.3482L25.6153 19.4827L29.4652 17.1049L29.331 21.6276L31.7085 25.4773L27.1857 25.3434L23.3361 27.7206ZM28.4067 21.8736L28.4987 18.7788L25.8645 20.4058L22.7728 20.3156L24.3968 22.948L24.305 26.0425L26.939 24.4158L30.0307 24.506L28.4067 21.8736Z" fill="black"/>
</g>
<defs>
<clipPath id="clip0_9_128">
<rect width="50" height="50" fill="white" transform="translate(25) rotate(30)"/>
</clipPath>
</defs>
</svg>
