<svg width="46" height="46" viewBox="0 0 46 46" fill="none" xmlns="http://www.w3.org/2000/svg">
<path d="M32.558 43.2987C28.5339 45.1986 24.0367 45.8625 19.6353 45.2064C15.2338 44.5504 11.1257 42.6039 7.83053 39.6131C4.53533 36.6223 2.201 32.7215 1.12274 28.4041C0.0444751 24.0866 0.270706 19.5463 1.77282 15.3574C3.27494 11.1685 5.98547 7.51914 9.56166 4.87073C13.1378 2.22232 17.4191 0.693854 21.8639 0.478606C26.3088 0.263359 30.7177 1.371 34.5331 3.66147C38.3484 5.95193 41.3989 9.32235 43.2987 13.3465C45.8463 18.7427 46.146 24.93 44.1317 30.5471C42.1174 36.1642 37.9542 40.7511 32.558 43.2987ZM14.3317 4.69268C10.7203 6.39761 7.69552 9.13518 5.63994 12.5592C3.58435 15.9832 2.59027 19.9399 2.78339 23.9289C2.97652 27.9178 4.34819 31.76 6.72493 34.9694C9.10168 38.1788 12.3768 40.6114 16.136 41.9594C19.8953 43.3075 23.9698 43.5106 27.8445 42.5429C31.7192 41.5753 35.2198 39.4804 37.9039 36.5232C40.588 33.5659 42.3348 29.8792 42.9236 25.9292C43.5123 21.9792 42.9166 17.9433 41.2116 14.3319C38.9253 9.48917 34.8089 5.75303 29.768 3.94533C24.727 2.13764 19.1745 2.40647 14.3317 4.69268ZM30.9776 21.2502L35.4407 19.1432L37.2999 23.0812L32.8368 25.1883L30.9776 21.2502ZM21.5155 19.3173C20.553 19.7843 19.7681 20.551 19.2787 21.5023C18.7894 22.4536 18.622 23.5381 18.8018 24.5926L17.3526 25.2768C16.9671 23.8498 17.0957 22.3326 17.7158 20.9908C18.336 19.649 19.4082 18.5679 20.745 17.9369C22.0817 17.3058 23.5977 17.1648 25.0279 17.5387C26.458 17.9125 27.7112 18.7774 28.5681 19.9819L27.3158 20.5731C26.6153 19.7639 25.6711 19.2039 24.6251 18.9775C23.5791 18.751 22.4879 18.8702 21.5155 19.3173ZM12.0751 30.1743L16.5382 28.0672L18.3974 32.0053L13.9343 34.1123L12.0751 30.1743Z" fill="#363344"/>
</svg>
