<svg width="28" height="28" viewBox="0 0 28 28" fill="none" xmlns="http://www.w3.org/2000/svg">
<path d="M13.9872 19.217C13.7176 19.2147 13.4595 19.1077 13.2673 18.9187L3.0855 8.73688C2.90003 8.54484 2.7974 8.28765 2.79972 8.02069C2.80204 7.75372 2.90912 7.49835 3.0979 7.30957C3.28668 7.12079 3.54205 7.01371 3.80902 7.01139C4.07598 7.00907 4.33318 7.1117 4.52521 7.29717L13.9872 16.7591L23.4491 7.29717C23.5431 7.19992 23.6554 7.12235 23.7796 7.06899C23.9039 7.01563 24.0375 6.98754 24.1727 6.98637C24.3078 6.98519 24.4419 7.01095 24.567 7.06215C24.6922 7.11334 24.8059 7.18895 24.9015 7.28455C24.9971 7.38015 25.0727 7.49383 25.1239 7.61896C25.1751 7.74409 25.2008 7.87816 25.1996 8.01336C25.1985 8.14855 25.1704 8.28216 25.117 8.40638C25.0637 8.5306 24.9861 8.64295 24.8888 8.73688L14.707 18.9187C14.5148 19.1077 14.2567 19.2147 13.9872 19.217Z" fill="black"/>
</svg>
