<svg width="157" height="27" viewBox="0 0 157 27" fill="none" xmlns="http://www.w3.org/2000/svg">
<path d="M5.44341 17.4262C6.04884 17.9964 6.71762 18.4257 7.44976 18.7141C8.1819 19.0025 8.94085 19.2065 9.72661 19.3261C10.5121 19.427 11.3156 19.481 12.1371 19.4881C12.9584 19.4765 13.7516 19.4653 14.5169 19.4545C14.7969 19.4506 15.17 19.436 15.6364 19.4108C16.1214 19.3853 16.6342 19.3407 17.1747 19.2771C17.7336 19.1945 18.2922 19.0933 18.8506 18.9734C19.4087 18.8349 19.9102 18.6598 20.3553 18.4482C20.819 18.2363 21.1889 17.9884 21.4649 17.7044C21.7594 17.4016 21.9037 17.0449 21.8979 16.6342C21.8921 16.2236 21.7284 15.8712 21.4069 15.577C21.1038 15.264 20.708 14.9988 20.2196 14.7817C19.7312 14.5646 19.1779 14.3857 18.5599 14.245C17.9602 14.0855 17.3612 13.9726 16.7629 13.9063C16.1643 13.8214 15.6035 13.764 15.0803 13.734C14.5758 13.7038 14.165 13.6909 13.8477 13.6954L13.8757 13.695C13.4274 13.6827 12.8762 13.6438 12.2218 13.5783C11.5675 13.5129 10.8847 13.4105 10.1733 13.2712C9.46195 13.1318 8.75005 12.9552 8.03763 12.7412C7.32495 12.5086 6.68627 12.2282 6.12159 11.9001C5.55691 11.5721 5.09409 11.1865 4.73315 10.7436C4.37194 10.282 4.18712 9.75252 4.1787 9.15524C4.16949 8.50198 4.32958 7.93966 4.65897 7.46831C5.00703 6.99669 5.44946 6.59841 5.98626 6.27348C6.54147 5.92962 7.16306 5.6595 7.85103 5.46312C8.53873 5.24807 9.23642 5.07955 9.94411 4.95756C10.6518 4.83558 11.3227 4.75145 11.9568 4.70517C12.6095 4.65863 13.1598 4.6322 13.6078 4.62589C14.3357 4.61563 15.0735 4.64257 15.8212 4.7067C16.5872 4.75191 17.3354 4.85337 18.0657 5.01109C18.796 5.16882 19.5085 5.39213 20.2033 5.68103C20.8979 5.95127 21.5376 6.30628 22.1225 6.74608L20.6537 7.8309C20.1071 7.46523 19.5338 7.18395 18.9336 6.98706C18.3332 6.7715 17.7149 6.6122 17.0787 6.50915C16.4425 6.40611 15.7976 6.34986 15.1441 6.34041C14.4903 6.31229 13.8555 6.30257 13.2395 6.31125C12.8102 6.3173 12.2227 6.35359 11.4769 6.4201C10.7497 6.48636 10.0235 6.61794 9.29822 6.81485C8.59133 6.99283 7.97921 7.27216 7.46185 7.65282C6.94424 8.01482 6.68977 8.50379 6.69845 9.11973C6.70687 9.717 6.96569 10.1987 7.4749 10.5649C7.98385 10.9125 8.65053 11.1924 9.47494 11.4048C10.2991 11.5986 11.2347 11.7534 12.2818 11.8693C13.3472 11.9663 14.4315 12.0724 15.5346 12.1875C16.6376 12.3026 17.7131 12.4461 18.761 12.618C19.8272 12.771 20.7733 13.0097 21.5993 13.3341C22.4251 13.6398 23.0937 14.0598 23.6053 14.594C24.1166 15.1095 24.3781 15.7779 24.3896 16.5991C24.3978 17.1777 24.2277 17.6935 23.8794 18.1465C23.5497 18.5991 23.1073 18.9974 22.5521 19.3413C21.9966 19.6665 21.3658 19.9461 20.6597 20.18C19.972 20.3951 19.2745 20.5729 18.5671 20.7136C17.8783 20.854 17.217 20.9566 16.5832 21.0216C15.9494 21.0865 15.4272 21.1219 15.0165 21.1277L12.9167 21.1573C12.1515 21.1681 11.3485 21.1514 10.5078 21.1072C9.66709 21.0631 8.84413 20.9533 8.03891 20.778C7.23343 20.584 6.46423 20.3148 5.7313 19.9704C4.99837 19.6261 4.3476 19.1499 3.77897 18.5418L5.44341 17.4262ZM1.44691 17.9866C2.21061 19.1893 3.11047 20.1194 4.14651 20.7769C5.18228 21.4157 6.29968 21.8853 7.4987 22.1857C8.69746 22.4675 9.93184 22.6275 11.2018 22.6656C12.4905 22.7034 13.7694 22.7134 15.0386 22.6955C15.5986 22.6876 16.2607 22.641 17.0249 22.5555C17.7888 22.4514 18.5801 22.3002 19.3987 22.102C20.2173 21.9038 21.0165 21.6498 21.7962 21.3401C22.5943 21.0115 23.2983 20.6282 23.9082 20.1903C24.5365 19.7333 25.0332 19.213 25.3983 18.6291C25.7819 18.0263 25.9683 17.3423 25.9575 16.577C25.9446 15.6624 25.7284 14.8907 25.3088 14.2619C24.9076 13.6142 24.3774 13.0803 23.718 12.6602C23.0771 12.2212 22.3349 11.8769 21.4913 11.6275C20.6661 11.3591 19.8138 11.1564 18.9344 11.0194C18.0551 10.8825 17.1949 10.7826 16.354 10.7198C15.513 10.657 14.7655 10.6022 14.1114 10.5554C13.8872 10.5399 13.4574 10.5086 12.822 10.4615C12.1863 10.3958 11.5317 10.3117 10.8582 10.2092C10.1844 10.088 9.58494 9.93779 9.05969 9.75851C8.53445 9.57923 8.26998 9.35893 8.2663 9.09762C8.26209 8.79899 8.50157 8.57159 8.98475 8.41543C9.46793 8.25927 10.017 8.13952 10.6319 8.05618C11.2654 7.97257 11.8715 7.92669 12.4501 7.91854C13.0471 7.89145 13.4483 7.87646 13.6536 7.87357C14.2509 7.86515 14.8579 7.88459 15.4746 7.93191C16.091 7.96055 16.6896 8.04546 17.2704 8.18662C17.8697 8.32752 18.4327 8.53427 18.9593 8.80688C19.5045 9.07922 20.0042 9.43621 20.4585 9.87785L24.5074 7.0765C23.7845 6.11593 22.9712 5.37132 22.0677 4.84267C21.1639 4.29535 20.2061 3.88881 19.1942 3.62305C18.1824 3.35728 17.1253 3.19483 16.023 3.1357C14.9394 3.0763 13.847 3.05436 12.7458 3.06989C12.1672 3.07804 11.5052 3.13404 10.76 3.23789C10.0331 3.32281 9.28833 3.46399 8.5257 3.66143C7.78174 3.8586 7.0479 4.11164 6.32418 4.42053C5.61913 4.72917 4.98979 5.11141 4.43616 5.56726C3.88253 6.02311 3.44194 6.55204 3.11439 7.15405C2.78658 7.73739 2.62807 8.41169 2.63886 9.17695C2.65122 10.0542 2.87652 10.8071 3.31476 11.4356C3.753 12.0642 4.3299 12.5975 5.04548 13.0354C5.76106 13.4734 6.56878 13.826 7.46863 14.0934C8.36849 14.3607 9.27702 14.5813 10.1942 14.755C11.1298 14.9098 12.0277 15.0372 12.8879 15.1371C13.7664 15.218 14.5329 15.2912 15.1872 15.3567C15.3741 15.3727 15.7386 15.4049 16.2807 15.4533C16.8414 15.5014 17.4212 15.5772 18.0201 15.6808C18.6186 15.7657 19.1524 15.8889 19.6214 16.0503C20.0904 16.2117 20.3266 16.4137 20.33 16.6563C20.3329 16.8616 20.1861 17.0411 19.8896 17.1946C19.5928 17.3295 19.2117 17.4468 18.7464 17.5467C18.2809 17.628 17.7684 17.6912 17.209 17.7364C16.6495 17.7817 16.0993 17.8174 15.5583 17.8437C15.0359 17.8697 14.5601 17.8858 14.1308 17.8918C13.7202 17.8976 13.4309 17.9017 13.2629 17.9041C12.5537 17.9141 11.8533 17.8959 11.1619 17.8497C10.4703 17.7848 9.79652 17.6636 9.14062 17.4861C8.48446 17.29 7.86457 17.0187 7.28097 16.6723C6.69736 16.3258 6.16803 15.8572 5.69299 15.2665L1.44691 17.9866ZM5.45915 14.5697L4.09594 13.2168C3.43583 12.7407 2.91453 12.1787 2.53202 11.5307C2.14925 10.864 1.95156 10.0827 1.93893 9.18682C1.92682 8.32824 2.09348 7.56981 2.4389 6.91155C2.80273 6.23435 3.27986 5.6489 3.87029 5.15519C4.46072 4.66149 5.1362 4.24126 5.89672 3.89451C6.65698 3.52909 7.43696 3.23807 8.23665 3.02144C9.03634 2.80481 9.82749 2.64431 10.6101 2.53994C11.3927 2.43556 12.1013 2.3789 12.7359 2.36996C13.8371 2.35443 14.9482 2.37611 16.0692 2.43498C17.1898 2.47519 18.2841 2.62778 19.3519 2.89275C20.4384 3.15747 21.4804 3.57215 22.4778 4.13682C23.4752 4.70148 24.4105 5.50038 25.2838 6.5335C25.8706 7.10396 26.3347 7.58279 26.6762 7.97002C27.0175 8.33858 27.2832 8.6522 27.4736 8.91088C27.6826 9.16929 27.8349 9.38183 27.9306 9.5485C28.026 9.6965 28.1213 9.83517 28.2165 9.96451L24.6668 12.4228C24.7614 12.5148 24.8653 12.5973 24.9783 12.6704C25.1098 12.7246 25.2888 12.8434 25.5154 13.0269C25.742 13.2104 26.0351 13.4769 26.3948 13.8266C26.7728 14.1573 27.2742 14.6356 27.8991 15.2615C28.3537 15.7218 28.7167 16.3141 28.9883 17.0383C29.2599 17.7626 29.4013 18.526 29.4126 19.3286C29.4244 20.1685 29.2297 20.918 28.8282 21.577C28.4268 22.2361 27.9029 22.8129 27.2565 23.3074C26.61 23.8019 25.8692 24.223 25.0341 24.5708C24.1989 24.9186 23.3534 25.2012 22.4978 25.4187C21.6421 25.6361 20.8043 25.7972 19.9843 25.9021C19.1831 26.0068 18.4838 26.0633 17.8865 26.0717C16.7853 26.0872 15.6654 26.103 14.5268 26.1191C13.3883 26.1351 12.2671 26.0576 11.1632 25.8865C10.078 25.7151 9.01913 25.422 7.98652 25.0071C6.9539 24.5923 6.00212 23.9523 5.13117 23.0872C4.39377 22.4255 3.76955 21.8463 3.25849 21.3494C2.76584 20.8337 2.3393 20.373 1.97888 19.9673C1.63687 19.5428 1.34204 19.1549 1.09439 18.8037C0.865417 18.4522 0.645904 18.1099 0.435855 17.7769L5.45915 14.5697ZM41.481 5.94114L32.1019 6.07335L32.0779 4.36552L52.5438 4.07702L52.5679 5.78485L43.1608 5.91746L43.3696 20.728L41.6898 20.7517L41.481 5.94114ZM44.7228 7.4636L54.1299 7.33099L54.0616 2.48747L30.5159 2.81939L30.5842 7.66291L39.9633 7.53069L40.172 22.3412L44.9316 22.2741L44.7228 7.4636ZM29.8941 8.3727L29.8061 2.12932L54.7516 1.77768L57.508 4.62311L57.5937 10.6985L48.1866 10.8311L48.3954 25.6416L42.404 25.7261L39.482 23.051L39.3115 10.9562L32.8161 11.0478L29.8941 8.3727ZM76.5042 14.1843L70.4788 5.89641L64.5494 14.3528L76.5042 14.1843ZM73.4592 12.7151L67.5238 12.7987L70.4603 8.55693L73.4592 12.7151ZM80.7614 20.2009L77.6766 15.9039L63.37 16.1056C62.8574 16.8223 62.3543 17.5574 61.8609 18.3111C61.3859 19.0459 60.8921 19.7716 60.3795 20.4882L58.1397 20.5198C60.079 17.7108 62.0093 14.93 63.9307 12.1773C65.8707 9.42438 67.8011 6.64356 69.7217 3.83487L71.0655 3.81593L82.8612 20.1713L80.7614 20.2009ZM68.9436 2.27769L55.2221 22.1291L61.1575 22.0454L64.176 17.6624L76.8308 17.484L79.9436 21.7806L85.879 21.6969L71.8833 2.23625L68.9436 2.27769ZM75.0498 4.37583L89.9028 25.0565L82.4555 25.1615L79.5895 22.4856L78.4187 20.878L67.3598 21.0339C67.1406 21.373 66.8936 21.7312 66.6189 22.1084C66.3629 22.4854 66.0975 22.8625 65.8228 23.2398C65.567 23.6354 65.311 24.0124 65.0547 24.3707C64.7986 24.7477 64.5608 25.0964 64.3413 25.4169L56.8661 25.5222L53.8601 22.8483L68.5698 1.58289L72.2374 1.53119L75.0498 4.37583ZM106.322 6.59526C106.546 6.5921 106.78 6.60747 107.023 6.64138C107.266 6.67529 107.491 6.73746 107.698 6.82789C107.904 6.91832 108.074 7.04661 108.207 7.21275C108.359 7.37863 108.437 7.60155 108.441 7.88152C108.444 8.14283 108.373 8.35853 108.226 8.52862C108.079 8.69871 107.894 8.83199 107.671 8.92847C107.467 9.02469 107.235 9.09331 106.974 9.13432C106.732 9.17507 106.518 9.19676 106.331 9.19939L95.9721 9.34542L95.9354 6.74168L106.322 6.59526ZM106.353 10.7392C106.801 10.7329 107.239 10.6801 107.667 10.5807C108.113 10.4624 108.512 10.2888 108.863 10.0598C109.215 9.8308 109.491 9.53755 109.691 9.18003C109.91 8.80357 110.016 8.36337 110.009 7.85942C110.001 7.33681 109.892 6.8903 109.682 6.5199C109.471 6.1495 109.187 5.8548 108.829 5.63583C108.49 5.41658 108.096 5.26346 107.647 5.17645C107.216 5.07051 106.767 5.02083 106.3 5.02741L94.3735 5.19554L94.454 10.907L106.353 10.7392ZM108.918 11.9632C108.659 12.1162 108.371 12.2323 108.055 12.3114C107.739 12.3905 107.441 12.4694 107.162 12.548C108.225 13.7651 109.287 14.9636 110.349 16.1434C111.43 17.323 112.511 18.5212 113.592 19.7381L111.325 19.7701L104.753 12.442L94.4776 12.5868L94.5822 20.0061L92.8464 20.0305L92.6135 3.51218L106.276 3.31958C107.041 3.30879 107.752 3.38279 108.408 3.54156C109.082 3.70007 109.655 3.96269 110.127 4.3294C110.617 4.69586 110.997 5.16655 111.267 5.74148C111.555 6.31614 111.705 7.0141 111.716 7.83535C111.731 8.86191 111.51 9.71445 111.052 10.393C110.595 11.0528 109.893 11.5761 108.946 11.9628L108.918 11.9632ZM113.284 7.81325C113.269 6.74935 113.088 5.83714 112.742 5.07662C112.395 4.29744 111.91 3.66021 111.287 3.16494C110.663 2.66968 109.921 2.30677 109.059 2.07623C108.216 1.84543 107.281 1.73726 106.254 1.75174L91.0796 1.96564L91.3567 21.6197L96.1442 21.5522L96.0392 14.1049L104.046 13.9921L110.591 21.3486L117.03 21.2578L109.861 13.266C112.179 12.2066 113.321 10.389 113.284 7.81325ZM90.6666 22.3295L90.3698 1.27558L106.244 1.05181C106.972 1.04154 107.673 1.08767 108.346 1.19019C109.02 1.27404 109.694 1.46988 110.371 1.77771C111.066 2.08528 111.782 2.53257 112.518 3.11958C113.273 3.70633 114.077 4.4884 114.931 5.4658C115.48 5.99945 115.91 6.72145 116.222 7.63182C116.552 8.52326 116.724 9.50092 116.739 10.5648C116.757 11.7967 116.501 12.8924 115.974 13.8519C115.464 14.8112 114.71 15.5966 113.711 16.2081C114.299 16.8718 114.915 17.5632 115.56 18.2822C116.205 19.0012 116.85 19.7295 117.495 20.4672C118.14 21.1861 118.775 21.8959 119.401 22.5965C120.046 23.3155 120.653 23.9883 121.222 24.615L113.159 24.7287L110.293 22.0528L106.138 17.3789L99.503 17.4725L99.608 24.9197L93.5886 25.0046L90.6666 22.3295ZM129.574 4.69933L120.195 4.83154L120.171 3.12371L140.637 2.83521L140.661 4.54304L131.254 4.67565L131.462 19.4862L129.783 19.5099L129.574 4.69933ZM132.816 6.22179L142.223 6.08918L142.154 1.24566L118.609 1.57758L118.677 6.4211L128.056 6.28888L128.265 21.0994L133.024 21.0323L132.816 6.22179ZM117.987 7.13089L117.899 0.887514L142.844 0.535866L145.601 3.3813L145.686 9.45669L136.279 9.5893L136.488 24.3998L130.497 24.4843L127.575 21.8092L127.404 9.71441L120.909 9.80597L117.987 7.13089ZM149.746 17.5483L151.482 17.5238L151.505 19.2036L149.77 19.2281L149.746 17.5483ZM149.537 2.70975L151.217 2.68607C151.246 4.77653 151.285 6.90419 151.335 9.06904C151.384 11.2339 151.423 13.3616 151.452 15.452L149.717 15.4765L149.537 2.70975ZM152.79 1.09573L147.975 1.16362L148.252 20.8177L153.067 20.7498L152.79 1.09573ZM147.562 21.5275L147.265 0.473552L153.48 0.385936L156.237 3.23137L156.531 24.1173L150.484 24.2025L147.562 21.5275Z" fill="#7018C9"/>
</svg>
