<svg width="42" height="39" viewBox="0 0 42 39" fill="none" xmlns="http://www.w3.org/2000/svg">
<ellipse cx="9.71502" cy="9.0271" rx="9.71502" ry="9.0271" fill="#B063FF"/>
<path fill-rule="evenodd" clip-rule="evenodd" d="M17.6513 3.81925C16.0677 2.77822 14.1341 2.1665 12.0467 2.1665C6.6812 2.1665 2.33164 6.20807 2.33164 11.1936C2.33164 13.1332 2.98999 14.93 4.1104 16.4014C1.62355 14.7666 0 12.073 0 9.0271C0 4.04157 4.34956 0 9.71502 0C12.993 0 15.8919 1.50854 17.6513 3.81925Z" fill="#7018C9"/>
<ellipse cx="31.4767" cy="29.2478" rx="9.71502" ry="9.0271" fill="#B063FF"/>
<path fill-rule="evenodd" clip-rule="evenodd" d="M29.1447 36.1083C34.5101 36.1083 38.8597 32.0667 38.8597 27.0812C38.8597 25.1415 38.2013 23.3446 37.0807 21.8731C39.5679 23.5079 41.1916 26.2016 41.1916 29.2478C41.1916 34.2333 36.8421 38.2749 31.4766 38.2749C28.1987 38.2749 25.3 36.7664 23.5405 34.4559C25.124 35.4967 27.0575 36.1083 29.1447 36.1083Z" fill="#7018C9"/>
<path fill-rule="evenodd" clip-rule="evenodd" d="M31.4769 18.0542C36.8423 18.0541 41.1917 14.0126 41.1917 9.0271C41.1917 4.04157 36.8421 0 31.4767 0C26.1112 0 21.7617 4.04157 21.7617 9.0271C21.7617 9.02755 21.7617 9.028 21.7617 9.02845C21.7421 9.12763 20.6409 14.6647 18.2645 16.9709C15.7329 19.4279 9.7373 20.2178 9.71535 20.2207C9.71524 20.2207 9.71513 20.2207 9.71502 20.2207C4.34956 20.2207 0 24.2623 0 29.2478C0 34.2333 4.34956 38.2749 9.71502 38.2749C15.0805 38.2749 19.43 34.2333 19.43 29.2478C19.43 29.2473 19.43 29.2468 19.43 29.2463C19.4302 29.2473 19.4303 29.2478 19.4303 29.2478C19.4303 29.2478 20.4547 23.6538 22.9277 21.304C25.4703 18.8879 31.4769 18.0542 31.4769 18.0542C31.4769 18.0542 31.4769 18.0542 31.4769 18.0542Z" fill="#B063FF"/>
</svg>
