<svg width="392" height="392" viewBox="0 0 392 392" fill="none" xmlns="http://www.w3.org/2000/svg">
<path d="M316.893 388.528C321.071 384.352 321.073 380.164 316.901 375.991C321.073 380.164 325.26 380.161 329.437 375.984C325.26 380.161 325.257 384.349 329.431 388.522C325.257 384.349 321.071 384.352 316.893 388.528ZM328.184 377.239C324.834 380.588 321.499 380.589 318.152 377.244C321.499 380.589 321.496 383.925 318.148 387.274C321.496 383.925 324.832 383.923 328.177 387.269C324.832 383.923 324.834 380.588 328.184 377.239Z" fill="white"/>
<path d="M254.24 325.875C258.417 321.696 258.42 317.508 254.247 313.335C258.42 317.508 262.607 317.507 266.785 313.329C262.607 317.507 262.605 321.695 266.778 325.866C262.605 321.695 258.417 321.696 254.24 325.875ZM265.53 314.583C262.181 317.934 258.846 317.935 255.5 314.588C258.846 317.935 258.844 321.269 255.494 324.62C258.844 321.269 262.178 321.268 265.525 324.613C262.178 321.268 262.181 317.934 265.53 314.583Z" fill="white"/>
<path d="M190.261 389.852C195.28 384.833 195.283 379.819 190.271 374.807C195.283 379.819 200.298 379.816 205.315 374.798C200.298 379.816 200.294 384.832 205.307 389.844C200.294 384.832 195.28 384.833 190.261 389.852ZM203.81 376.303C199.796 380.317 195.783 380.321 191.774 376.31C195.783 380.321 195.782 384.332 191.768 388.346C195.782 384.332 199.794 384.33 203.804 388.339C199.794 384.33 199.796 380.317 203.81 376.303Z" fill="white"/>
<path d="M191.587 263.221C195.765 259.042 195.766 254.856 191.593 250.683C195.766 254.856 199.954 254.853 204.131 250.676C199.954 254.853 199.951 259.041 204.124 263.214C199.951 259.041 195.765 259.042 191.587 263.221ZM202.878 251.931C199.527 255.28 196.193 255.281 192.846 251.936C196.193 255.281 196.19 258.617 192.841 261.966C196.19 258.617 199.526 258.616 202.871 261.961C199.526 258.616 199.527 255.28 202.878 251.931Z" fill="white"/>
<path d="M127.609 327.198C132.626 322.181 132.63 317.165 127.617 312.153C132.63 317.165 137.645 317.164 142.663 312.145C137.645 317.164 137.642 322.178 142.654 327.19C137.642 322.178 132.626 322.181 127.609 327.198ZM141.156 313.651C137.142 317.665 133.131 317.667 129.12 313.657C133.131 317.667 133.128 321.679 129.114 325.694C133.128 321.679 137.14 321.676 141.15 325.687C137.14 321.676 137.142 317.665 141.156 313.651Z" fill="white"/>
<path d="M63.6313 391.176C69.4895 385.318 69.4927 379.476 63.6411 373.624C69.4927 379.476 75.3347 379.472 81.1929 373.614C75.3347 379.472 75.3314 385.314 81.1831 391.166C75.3314 385.314 69.4895 385.318 63.6313 391.176ZM79.4366 375.371C74.7584 380.049 70.069 380.052 65.3958 375.379C70.069 380.052 70.0657 384.741 65.3876 389.42C70.0657 384.741 74.7552 384.738 79.4301 389.413C74.7552 384.738 74.7584 380.049 79.4366 375.371Z" fill="white"/>
<path d="M128.933 200.567C133.109 196.39 133.111 192.202 128.939 188.029C133.111 192.202 137.299 192.201 141.477 188.023C137.299 192.201 137.297 196.389 141.471 200.56C137.297 196.389 133.109 196.39 128.933 200.567ZM140.222 189.277C136.874 192.626 133.538 192.629 130.192 189.282C133.538 192.629 133.536 195.963 130.186 199.314C133.536 195.963 136.87 195.962 140.217 199.307C136.87 195.962 136.874 192.626 140.222 189.277Z" fill="white"/>
<path d="M64.9536 264.546C69.9726 259.527 69.9742 254.513 64.9634 249.5C69.9742 254.513 74.99 254.51 80.0073 249.492C74.99 254.51 74.9867 259.525 79.9992 264.536C74.9867 259.525 69.9726 259.527 64.9536 264.546ZM78.5026 250.997C74.4884 255.011 70.4758 255.014 66.4665 251.003C70.4758 255.014 70.4742 259.025 66.46 263.04C70.4742 259.025 74.4868 259.024 78.4961 263.033C74.4868 259.024 74.4884 255.011 78.5026 250.997Z" fill="white"/>
<path d="M0.977606 328.522C6.83579 322.664 6.83903 316.82 0.987341 310.969C6.83903 316.82 12.6826 316.817 18.5408 310.959C12.6826 316.817 12.6794 322.661 18.531 328.512C12.6794 322.661 6.83579 322.664 0.977606 328.522ZM16.7845 312.715C12.1047 317.395 7.41528 317.396 2.74205 312.723C7.41528 317.396 7.41365 322.086 2.73392 326.766C7.41365 322.086 12.1031 322.084 16.7764 326.758C12.1031 322.084 12.1047 317.395 16.7845 312.715Z" fill="white"/>
<path d="M66.2788 137.913C70.457 133.735 70.4586 129.548 66.2853 125.375C70.4586 129.548 74.6465 129.545 78.823 125.369C74.6465 129.545 74.6432 133.733 78.8165 137.906C74.6432 133.733 70.457 133.735 66.2788 137.913ZM77.5699 126.622C74.2196 129.972 70.8839 129.974 67.5384 126.628C70.8839 129.974 70.8823 133.309 67.5336 136.658C70.8823 133.309 74.2179 133.308 77.5634 136.653C74.2179 133.308 74.2196 129.972 77.5699 126.622Z" fill="white"/>
<path d="M2.30129 201.891C7.31864 196.873 7.3219 191.857 2.30941 186.845C7.3219 191.857 12.3376 191.854 17.355 186.837C12.3376 191.854 12.3344 196.87 17.3469 201.882C12.3344 196.87 7.31864 196.873 2.30129 201.891ZM15.8486 188.343C11.8344 192.357 7.82346 192.359 3.8125 188.35C7.82346 192.359 7.82022 196.372 3.80601 200.386C7.82022 196.372 11.8328 196.368 15.8422 200.379C11.8328 196.368 11.8344 192.357 15.8486 188.343Z" fill="white"/>
<path d="M3.6267 75.259C7.80323 71.0825 7.80648 66.8946 3.63319 62.7213C7.80648 66.8946 11.9927 66.893 16.1709 62.7148C11.9927 66.893 11.9911 71.0793 16.1644 75.2526C11.9911 71.0793 7.80323 71.0825 3.6267 75.259ZM14.9162 63.9696C11.5675 67.3183 8.23176 67.3215 4.88632 63.9745C8.23176 67.3215 8.23012 70.6556 4.8798 74.0059C8.23012 70.6556 11.5642 70.654 14.9113 73.9994C11.5642 70.654 11.5675 67.3183 14.9162 63.9696Z" fill="white"/>
<path d="M380.21 387.866C383.973 384.104 383.974 380.343 380.215 376.583C383.974 380.343 387.737 380.34 391.5 376.577C387.737 380.34 387.734 384.101 391.493 387.86C387.734 384.101 383.973 384.104 380.21 387.866ZM390.37 377.705C387.36 380.716 384.351 380.718 381.343 377.71C384.351 380.718 384.349 383.727 381.338 386.738C384.349 383.727 387.359 383.726 390.365 386.733C387.359 383.726 387.36 380.716 390.37 377.705Z" fill="white"/>
<path d="M317.556 325.213C321.319 321.448 321.322 317.687 317.563 313.928C321.322 317.687 325.083 317.686 328.846 313.922C325.083 317.686 325.081 321.447 328.841 325.206C325.081 321.447 321.319 321.448 317.556 325.213ZM327.718 315.051C324.707 318.062 321.697 318.064 318.691 315.056C321.697 318.064 321.695 321.072 318.686 324.083C321.695 321.072 324.705 321.07 327.713 324.078C324.705 321.07 324.707 318.062 327.718 315.051Z" fill="white"/>
<path d="M253.578 389.19C258.182 384.587 258.185 379.998 253.587 375.398C258.185 379.998 262.774 379.995 267.377 375.391C262.774 379.995 262.771 384.584 267.369 389.182C262.771 384.584 258.182 384.587 253.578 389.19ZM265.998 376.771C262.321 380.446 258.636 380.449 254.965 376.777C258.636 380.449 258.633 384.134 254.958 387.81C258.633 384.134 262.32 384.132 265.991 387.804C262.32 384.132 262.321 380.446 265.998 376.771Z" fill="white"/>
<path d="M254.901 262.559C258.665 258.796 258.667 255.035 254.907 251.276C258.667 255.035 262.428 255.032 266.192 251.269C262.428 255.032 262.426 258.793 266.185 262.552C262.426 258.793 258.665 258.796 254.901 262.559ZM265.062 252.397C262.053 255.408 259.043 255.41 256.035 252.402C259.043 255.41 259.042 258.42 256.031 261.431C259.042 258.42 262.051 258.418 265.057 261.426C262.051 258.418 262.053 255.408 265.062 252.397Z" fill="white"/>
<path d="M190.923 326.536C195.528 321.933 195.53 317.344 190.931 312.746C195.53 317.344 200.119 317.342 204.722 312.737C200.119 317.342 200.117 321.93 204.716 326.53C200.117 321.93 195.528 321.933 190.923 326.536ZM203.342 314.117C199.667 317.794 195.981 317.795 192.309 314.124C195.981 317.795 195.98 321.482 192.303 325.157C195.98 321.482 199.666 321.48 203.338 325.15C199.666 321.48 199.667 317.794 203.342 314.117Z" fill="white"/>
<path d="M126.947 390.516C132.378 385.083 132.382 379.642 126.957 374.215C132.382 379.642 137.824 379.638 143.256 374.207C137.824 379.638 137.821 385.079 143.246 390.506C137.821 385.079 132.378 385.083 126.947 390.516ZM141.624 375.838C137.271 380.19 132.934 380.194 128.585 375.845C132.934 380.194 132.932 384.531 128.579 388.884C132.932 384.531 137.269 384.529 141.618 388.876C137.269 384.529 137.271 380.19 141.624 375.838Z" fill="white"/>
<path d="M192.248 199.905C196.011 196.141 196.014 192.38 192.255 188.62C196.014 192.38 199.775 192.378 203.538 188.614C199.775 192.378 199.774 196.139 203.533 199.898C199.774 196.139 196.011 196.141 192.248 199.905ZM202.41 189.744C199.399 192.753 196.389 192.756 193.383 189.748C196.389 192.756 196.388 195.764 193.377 198.775C196.388 195.764 199.397 195.762 202.405 198.77C199.397 195.762 199.399 192.753 202.41 189.744Z" fill="white"/>
<path d="M128.271 263.883C132.874 259.279 132.878 254.69 128.277 250.09C132.878 254.69 137.466 254.687 142.07 250.084C137.466 254.687 137.463 259.276 142.062 263.874C137.463 259.276 132.874 259.279 128.271 263.883ZM140.69 251.463C137.014 255.138 133.329 255.141 129.657 251.47C133.329 255.141 133.326 258.826 129.651 262.503C133.326 258.826 137.012 258.825 140.684 262.496C137.012 258.825 137.014 255.138 140.69 251.463Z" fill="white"/>
<path d="M64.2933 327.86C69.7246 322.429 69.7278 316.986 64.3014 311.561C69.7278 316.986 75.1688 316.985 80.6001 311.552C75.1688 316.985 75.1656 322.426 80.592 327.85C75.1656 322.426 69.7246 322.429 64.2933 327.86ZM78.9704 313.183C74.6169 317.536 70.2781 317.538 65.9311 313.19C70.2781 317.538 70.2765 321.877 65.923 326.229C70.2765 321.877 74.6137 321.874 78.9623 326.222C74.6137 321.874 74.6169 317.536 78.9704 313.183Z" fill="white"/>
<path d="M0.31391 391.838C6.58763 385.566 6.59089 379.297 0.325277 373.031C6.59089 379.297 12.8597 379.294 19.1318 373.021C12.8597 379.294 12.8565 385.562 19.1205 391.828C12.8565 385.562 6.58763 385.566 0.31391 391.838ZM17.2505 374.903C12.2316 379.92 7.21745 379.923 2.20497 374.911C7.21745 379.923 7.2142 384.939 2.19684 389.956C7.2142 384.939 12.2299 384.936 17.2408 389.948C12.2299 384.936 12.2316 379.92 17.2505 374.903Z" fill="white"/>
<path d="M129.595 137.251C133.359 133.488 133.361 129.726 129.601 125.966C133.361 129.726 137.122 129.724 140.886 125.962C137.122 129.724 137.12 133.485 140.879 137.245C137.12 133.485 133.359 133.488 129.595 137.251ZM139.756 127.09C136.747 130.101 133.737 130.102 130.729 127.095C133.737 130.102 133.735 133.112 130.724 136.123C133.735 133.112 136.745 133.11 139.751 136.116C136.745 133.11 136.747 130.101 139.756 127.09Z" fill="white"/>
<path d="M65.6171 201.229C70.2205 196.625 70.2238 192.036 65.6252 187.438C70.2238 192.036 74.8126 192.033 79.416 187.43C74.8126 192.033 74.8093 196.622 79.4095 201.222C74.8093 196.622 70.2205 196.625 65.6171 201.229ZM78.0363 188.809C74.3613 192.486 70.675 192.488 67.0033 188.816C70.675 192.488 70.6734 196.174 66.9968 199.849C70.6734 196.174 74.3597 196.172 78.0298 199.842C74.3597 196.172 74.3613 192.486 78.0363 188.809Z" fill="white"/>
<path d="M1.63932 265.206C7.0706 259.775 7.07384 254.334 1.64906 248.908C7.07384 254.334 12.5149 254.331 17.9478 248.899C12.5149 254.331 12.5132 259.772 17.938 265.198C12.5132 259.772 7.0706 259.775 1.63932 265.206ZM16.3164 250.529C11.963 254.883 7.62572 254.886 3.27713 250.537C7.62572 254.886 7.62248 259.223 3.27064 263.577C7.62248 259.223 11.9613 259.221 16.3099 263.568C11.9613 259.221 11.963 254.883 16.3164 250.529Z" fill="white"/>
<path d="M66.9408 74.5988C70.7034 70.8346 70.7066 67.0736 66.9473 63.3142C70.7066 67.0736 74.4676 67.0719 78.2302 63.3077C74.4676 67.0719 74.466 70.8329 78.2237 74.5923C74.466 70.8329 70.7034 70.8346 66.9408 74.5988ZM77.1021 64.4375C74.091 67.4469 71.0816 67.4485 68.0754 64.4423C71.0816 67.4485 71.0799 70.458 68.0689 73.469C71.0799 70.458 74.0894 70.4564 77.0972 73.4642C74.0894 70.4564 74.091 67.4469 77.1021 64.4375Z" fill="white"/>
<path d="M2.96325 138.576C7.56669 133.973 7.56993 129.382 2.96974 124.784C7.56993 129.382 12.1588 129.381 16.7622 124.777C12.1588 129.381 12.1555 133.97 16.7541 138.568C12.1555 133.97 7.56669 133.973 2.96325 138.576ZM15.3825 126.157C11.7059 129.832 8.01957 129.834 4.34948 126.164C8.01957 129.834 8.01795 133.52 4.34299 137.197C8.01795 133.52 11.7043 133.518 15.376 137.19C11.7043 133.518 11.7059 129.832 15.3825 126.157Z" fill="white"/>
<path d="M4.28681 11.9433C8.05105 8.17906 8.05267 4.41808 4.2933 0.658712C8.05267 4.41808 11.8136 4.41645 15.5779 0.653839C11.8136 4.41645 11.812 8.17744 15.5714 11.9368C11.812 8.17744 8.05105 8.17906 4.28681 11.9433ZM14.4481 1.78197C11.4371 4.79304 8.42924 4.79466 5.42142 1.78685C8.42924 4.79466 8.42763 7.8041 5.41657 10.8135C8.42763 7.8041 11.4355 7.80248 14.4433 10.8087C11.4355 7.80248 11.4371 4.79304 14.4481 1.78197Z" fill="white"/>
</svg>
